<svg viewBox="0 0 876.0 992.0" width="876" height="992" data-diagram="Command Centre: Mobile package analysis process flow" role="img" xmlns="http://www.w3.org/2000/svg" style="max-width:100%;height:auto;display:block;margin:0 auto">
  <rect x="0" y="0" width="876" height="992" rx="14" fill="#0A0A0A"/>
  <rect x="0.75" y="0.75" width="874.5" height="990.5" rx="13" fill="none" stroke="#27272A" stroke-width="1.5"/>
<defs><marker id="flow-arrow-34" viewBox="0 0 10 10" refX="9" refY="5" markerWidth="7" markerHeight="7" orient="auto-start-reverse"><path d="M0,0 L10,5 L0,10 z" fill="#E8B54D"/></marker></defs>
<g transform="translate(24 24)"><rect x="358" y="24" width="112" height="48" rx="9" fill="#151517" stroke="#3F3F46" stroke-width="1.3"/><text x="414" y="49.0" text-anchor="middle" font-size="12.5" font-family="'Geist Variable',system-ui,sans-serif" fill="#E4E4E7"><tspan x="414" dy="0">Open Mobile</tspan></text><polygon points="414,138 474,168.5 414,199 354,168.5" fill="#241E10" stroke="#E8B54D" stroke-width="1.3"/><text x="414" y="169.5" text-anchor="middle" font-size="12.5" font-family="'Geist Variable',system-ui,sans-serif" fill="#E4E4E7"><tspan x="414" dy="0">Source</tspan></text><rect x="176" y="265" width="209" height="48" rx="9" fill="#151517" stroke="#3F3F46" stroke-width="1.3"/><text x="280.5" y="290.0" text-anchor="middle" font-size="12.5" font-family="'Geist Variable',system-ui,sans-serif" fill="#E4E4E7"><tspan x="280.5" dy="0">Upload an APK, AAB or IPA</tspan></text><rect x="415" y="265" width="237" height="56" rx="9" fill="#151517" stroke="#3F3F46" stroke-width="1.3"/><text x="533.5" y="285.5" text-anchor="middle" font-size="12.5" font-family="'Geist Variable',system-ui,sans-serif" fill="#E4E4E7"><tspan x="533.5" dy="0">Pick a package already in the</tspan><tspan x="533.5" dy="17">inventory</tspan></text><rect x="326.5" y="387" width="175" height="48" rx="9" fill="#151517" stroke="#3F3F46" stroke-width="1.3"/><text x="414" y="412.0" text-anchor="middle" font-size="12.5" font-family="'Geist Variable',system-ui,sans-serif" fill="#E4E4E7"><tspan x="414" dy="0">Static analysis runs</tspan></text><rect x="299" y="501" width="230" height="56" rx="9" fill="#151517" stroke="#3F3F46" stroke-width="1.3"/><text x="414" y="521.5" text-anchor="middle" font-size="12.5" font-family="'Geist Variable',system-ui,sans-serif" fill="#E4E4E7"><tspan x="414" dy="0">Endpoints, secrets, exported</tspan><tspan x="414" dy="17">surfaces, permissions</tspan></text><polygon points="414,623 543.5,653.5 414,684 284.5,653.5" fill="#241E10" stroke="#E8B54D" stroke-width="1.3"/><text x="414" y="654.5" text-anchor="middle" font-size="12.5" font-family="'Geist Variable',system-ui,sans-serif" fill="#E4E4E7"><tspan x="414" dy="0">In an authorized scope?</tspan></text><rect x="138" y="750" width="278" height="56" rx="9" fill="#151517" stroke="#3F3F46" stroke-width="1.3"/><text x="277" y="770.5" text-anchor="middle" font-size="12.5" font-family="'Geist Variable',system-ui,sans-serif" fill="#E4E4E7"><tspan x="277" dy="0">Reassess the endpoint on the web or</tspan><tspan x="277" dy="17">API side</tspan></text><rect x="446" y="750" width="244" height="48" rx="9" fill="#151517" stroke="#3F3F46" stroke-width="1.3"/><text x="568" y="775.0" text-anchor="middle" font-size="12.5" font-family="'Geist Variable',system-ui,sans-serif" fill="#E4E4E7"><tspan x="568" dy="0">Keep the finding, do not probe</tspan></text><rect x="344" y="872" width="140" height="48" rx="9" fill="#151517" stroke="#3F3F46" stroke-width="1.3"/><text x="414" y="897.0" text-anchor="middle" font-size="12.5" font-family="'Geist Variable',system-ui,sans-serif" fill="#E4E4E7"><tspan x="414" dy="0">Findings intake</tspan></text><path d="M 400.5 72.0 L 400.5 88.0 L 414.0 88.0 L 414.0 138.0" fill="none" stroke="#71717A" stroke-width="1.5" marker-end="url(#flow-arrow-34)"/><path d="M 409.5 199.0 L 409.5 220.0 L 280.5 220.0 L 280.5 265.0" fill="none" stroke="#71717A" stroke-width="1.5" marker-end="url(#flow-arrow-34)"/><g><rect x="278" y="206" width="134" height="17" rx="8" fill="#0A0A0A" opacity="0.92" stroke="#71717A" stroke-opacity="0.35"/><text x="345" y="219.5" text-anchor="middle" font-size="11" font-family="'Geist Variable',system-ui,sans-serif" fill="#D4D4D8">Analyze a package</text></g><path d="M 418.5 199.0 L 418.5 225.0 L 533.5 225.0 L 533.5 265.0" fill="none" stroke="#71717A" stroke-width="1.5" marker-end="url(#flow-arrow-34)"/><g><rect x="385" y="211" width="182" height="17" rx="8" fill="#0A0A0A" opacity="0.92" stroke="#71717A" stroke-opacity="0.35"/><text x="476" y="224.5" text-anchor="middle" font-size="11" font-family="'Geist Variable',system-ui,sans-serif" fill="#D4D4D8">Analyze a stored package</text></g><path d="M 294.0 313.0 L 294.0 344.0 L 414.0 344.0 L 414.0 387.0" fill="none" stroke="#71717A" stroke-width="1.5" marker-end="url(#flow-arrow-34)"/><path d="M 520.0 321.0 L 520.0 337.0 L 414.0 337.0 L 414.0 387.0" fill="none" stroke="#71717A" stroke-width="1.5" marker-end="url(#flow-arrow-34)"/><path d="M 409.5 435.0 L 409.5 456.0 L 414.0 456.0 L 414.0 501.0" fill="none" stroke="#71717A" stroke-width="1.5" marker-end="url(#flow-arrow-34)"/><path d="M 418.5 557.0 L 418.5 583.0 L 414.0 583.0 L 414.0 623.0" fill="none" stroke="#71717A" stroke-width="1.5" marker-end="url(#flow-arrow-34)"/><path d="M 427.5 684.0 L 427.5 715.0 L 277.0 715.0 L 277.0 750.0" fill="none" stroke="#71717A" stroke-width="1.5" marker-end="url(#flow-arrow-34)"/><g><rect x="333.75" y="701" width="37" height="17" rx="8" fill="#0A0A0A" opacity="0.92" stroke="#71717A" stroke-opacity="0.35"/><text x="352.25" y="714.5" text-anchor="middle" font-size="11" font-family="'Geist Variable',system-ui,sans-serif" fill="#D4D4D8">Yes</text></g><path d="M 400.5 684.0 L 400.5 700.0 L 568.0 700.0 L 568.0 750.0" fill="none" stroke="#71717A" stroke-width="1.5" marker-end="url(#flow-arrow-34)"/><g><rect x="469.25" y="686" width="30" height="17" rx="8" fill="#0A0A0A" opacity="0.92" stroke="#71717A" stroke-opacity="0.35"/><text x="484.25" y="699.5" text-anchor="middle" font-size="11" font-family="'Geist Variable',system-ui,sans-serif" fill="#D4D4D8">No</text></g><path d="M 272.5 806.0 L 272.5 827.0 L 414.0 827.0 L 414.0 872.0" fill="none" stroke="#71717A" stroke-width="1.5" marker-end="url(#flow-arrow-34)"/></g>
</svg>
