<svg viewBox="0 0 902.0 868.0" width="900" height="866" data-diagram="Command Centre: Findings tracker process flow" role="img" xmlns="http://www.w3.org/2000/svg" style="max-width:100%;height:auto;display:block;margin:0 auto">
  <rect x="0" y="0" width="902" height="868" rx="14" fill="#0A0A0A"/>
  <rect x="0.75" y="0.75" width="900.5" height="866.5" rx="13" fill="none" stroke="#27272A" stroke-width="1.5"/>
<defs><marker id="flow-arrow-14" viewBox="0 0 10 10" refX="9" refY="5" markerWidth="7" markerHeight="7" orient="auto-start-reverse"><path d="M0,0 L10,5 L0,10 z" fill="#E8B54D"/></marker></defs>
<g transform="translate(24 24)"><rect x="353.5" y="24" width="147" height="48" rx="9" fill="#151517" stroke="#3F3F46" stroke-width="1.3"/><text x="427" y="49.0" text-anchor="middle" font-size="12.5" font-family="'Geist Variable',system-ui,sans-serif" fill="#E4E4E7"><tspan x="427" dy="0">Open tracker tab</tspan></text><rect x="308.5" y="138" width="237" height="56" rx="9" fill="#151517" stroke="#3F3F46" stroke-width="1.3"/><text x="427" y="158.5" text-anchor="middle" font-size="12.5" font-family="'Geist Variable',system-ui,sans-serif" fill="#E4E4E7"><tspan x="427" dy="0">Board + summary chips: open /</tspan><tspan x="427" dy="17">in_progress / fixed / …</tspan></text><rect x="357" y="260" width="140" height="48" rx="9" fill="#151517" stroke="#3F3F46" stroke-width="1.3"/><text x="427" y="285.0" text-anchor="middle" font-size="12.5" font-family="'Geist Variable',system-ui,sans-serif" fill="#E4E4E7"><tspan x="427" dy="0">Filter / search</tspan></text><rect x="312" y="374" width="230" height="56" rx="9" fill="#151517" stroke="#3F3F46" stroke-width="1.3"/><text x="427" y="394.5" text-anchor="middle" font-size="12.5" font-family="'Geist Variable',system-ui,sans-serif" fill="#E4E4E7"><tspan x="427" dy="0">Change status · operate +</tspan><tspan x="427" dy="17">dual-control when configured</tspan></text><rect x="24" y="496" width="219" height="48" rx="9" fill="#151517" stroke="#3F3F46" stroke-width="1.3"/><text x="133.5" y="521.0" text-anchor="middle" font-size="12.5" font-family="'Geist Variable',system-ui,sans-serif" fill="#E4E4E7"><tspan x="133.5" dy="0">open · in_progress · fixed</tspan></text><rect x="273" y="496" width="240" height="48" rx="9" fill="#151517" stroke="#3F3F46" stroke-width="1.3"/><text x="393" y="521.0" text-anchor="middle" font-size="12.5" font-family="'Geist Variable',system-ui,sans-serif" fill="#E4E4E7"><tspan x="393" dy="0">open · in_progress · accepted</tspan></text><rect x="543" y="496" width="287" height="56" rx="9" fill="#151517" stroke="#3F3F46" stroke-width="1.3"/><text x="686.5" y="516.5" text-anchor="middle" font-size="12.5" font-family="'Geist Variable',system-ui,sans-serif" fill="#E4E4E7"><tspan x="686.5" dy="0">regressed · backend flags when fixed</tspan><tspan x="686.5" dy="17">issue returns</tspan></text><rect x="295" y="618" width="264" height="56" rx="9" fill="#151517" stroke="#3F3F46" stroke-width="1.3"/><text x="427" y="638.5" text-anchor="middle" font-size="12.5" font-family="'Geist Variable',system-ui,sans-serif" fill="#E4E4E7"><tspan x="427" dy="0">Optional: open drawer / deep link</tspan><tspan x="427" dy="17">?key=</tspan></text><rect x="302" y="740" width="250" height="56" rx="9" fill="#151517" stroke="#3F3F46" stroke-width="1.3"/><text x="427" y="760.5" text-anchor="middle" font-size="12.5" font-family="'Geist Variable',system-ui,sans-serif" fill="#E4E4E7"><tspan x="427" dy="0">Cross-link asset / risk / SOC /</tspan><tspan x="427" dy="17">report file</tspan></text><path d="M 413.5 72.0 L 413.5 88.0 L 427.0 88.0 L 427.0 138.0" fill="none" stroke="#71717A" stroke-width="1.5" marker-end="url(#flow-arrow-14)"/><path d="M 422.5 194.0 L 422.5 215.0 L 427.0 215.0 L 427.0 260.0" fill="none" stroke="#71717A" stroke-width="1.5" marker-end="url(#flow-arrow-14)"/><path d="M 431.5 308.0 L 431.5 334.0 L 427.0 334.0 L 427.0 374.0" fill="none" stroke="#71717A" stroke-width="1.5" marker-end="url(#flow-arrow-14)"/><path d="M 440.5 430.0 L 440.5 461.0 L 133.5 461.0 L 133.5 496.0" fill="none" stroke="#71717A" stroke-width="1.5" marker-end="url(#flow-arrow-14)"/><path d="M 413.5 430.0 L 413.5 446.0 L 393.0 446.0 L 393.0 496.0" fill="none" stroke="#71717A" stroke-width="1.5" marker-end="url(#flow-arrow-14)"/><path d="M 422.5 430.0 L 422.5 451.0 L 686.5 451.0 L 686.5 496.0" fill="none" stroke="#71717A" stroke-width="1.5" marker-end="url(#flow-arrow-14)"/><path d="M 138.0 544.0 L 138.0 570.0 L 427.0 570.0 L 427.0 618.0" fill="none" stroke="#71717A" stroke-width="1.5" marker-end="url(#flow-arrow-14)"/><path d="M 406.5 544.0 L 406.5 575.0 L 427.0 575.0 L 427.0 618.0" fill="none" stroke="#71717A" stroke-width="1.5" marker-end="url(#flow-arrow-14)"/><path d="M 673.0 552.0 L 673.0 568.0 L 427.0 568.0 L 427.0 618.0" fill="none" stroke="#71717A" stroke-width="1.5" marker-end="url(#flow-arrow-14)"/><path d="M 422.5 674.0 L 422.5 695.0 L 427.0 695.0 L 427.0 740.0" fill="none" stroke="#71717A" stroke-width="1.5" marker-end="url(#flow-arrow-14)"/></g>
</svg>
