<svg viewBox="0 0 1061.0 727.0" width="900" height="617" data-diagram="Command Centre: Asset intelligence process flow" role="img" xmlns="http://www.w3.org/2000/svg" style="max-width:100%;height:auto;display:block;margin:0 auto">
  <rect x="0" y="0" width="1061" height="727" rx="14" fill="#0A0A0A"/>
  <rect x="0.75" y="0.75" width="1059.5" height="725.5" rx="13" fill="none" stroke="#27272A" stroke-width="1.5"/>
<defs><marker id="flow-arrow-37" viewBox="0 0 10 10" refX="9" refY="5" markerWidth="7" markerHeight="7" orient="auto-start-reverse"><path d="M0,0 L10,5 L0,10 z" fill="#E8B54D"/></marker></defs>
<g transform="translate(24 24)"><rect x="409" y="24" width="195" height="48" rx="9" fill="#151517" stroke="#3F3F46" stroke-width="1.3"/><text x="506.5" y="49.0" text-anchor="middle" font-size="12.5" font-family="'Geist Variable',system-ui,sans-serif" fill="#E4E4E7"><tspan x="506.5" dy="0">Open Asset intelligence</tspan></text><rect x="429.5" y="138" width="154" height="48" rx="9" fill="#151517" stroke="#3F3F46" stroke-width="1.3"/><text x="506.5" y="163.0" text-anchor="middle" font-size="12.5" font-family="'Geist Variable',system-ui,sans-serif" fill="#E4E4E7"><tspan x="506.5" dy="0">Live event stream</tspan></text><polygon points="435.5,252 495.5,282.5 435.5,313 375.5,282.5" fill="#241E10" stroke="#E8B54D" stroke-width="1.3"/><text x="435.5" y="283.5" text-anchor="middle" font-size="12.5" font-family="'Geist Variable',system-ui,sans-serif" fill="#E4E4E7"><tspan x="435.5" dy="0">Event</tspan></text><rect x="525.5" y="252" width="112" height="48" rx="9" fill="#151517" stroke="#3F3F46" stroke-width="1.3"/><text x="581.5" y="277.0" text-anchor="middle" font-size="12.5" font-family="'Geist Variable',system-ui,sans-serif" fill="#E4E4E7"><tspan x="581.5" dy="0">Asset graph</tspan></text><rect x="24" y="379" width="133" height="48" rx="9" fill="#151517" stroke="#3F3F46" stroke-width="1.3"/><text x="90.5" y="404.0" text-anchor="middle" font-size="12.5" font-family="'Geist Variable',system-ui,sans-serif" fill="#E4E4E7"><tspan x="90.5" dy="0">Asset is alive</tspan></text><rect x="187" y="379" width="133" height="48" rx="9" fill="#151517" stroke="#3F3F46" stroke-width="1.3"/><text x="253.5" y="404.0" text-anchor="middle" font-size="12.5" font-family="'Geist Variable',system-ui,sans-serif" fill="#E4E4E7"><tspan x="253.5" dy="0">Open the asset</tspan></text><rect x="350" y="379" width="175" height="48" rx="9" fill="#151517" stroke="#3F3F46" stroke-width="1.3"/><text x="437.5" y="404.0" text-anchor="middle" font-size="12.5" font-family="'Geist Variable',system-ui,sans-serif" fill="#E4E4E7"><tspan x="437.5" dy="0">Open Findings intake</tspan></text><rect x="555" y="379" width="147" height="48" rx="9" fill="#151517" stroke="#3F3F46" stroke-width="1.3"/><text x="628.5" y="404.0" text-anchor="middle" font-size="12.5" font-family="'Geist Variable',system-ui,sans-serif" fill="#E4E4E7"><tspan x="628.5" dy="0">Newly discovered</tspan></text><rect x="732" y="379" width="257" height="48" rx="9" fill="#151517" stroke="#3F3F46" stroke-width="1.3"/><text x="860.5" y="404.0" text-anchor="middle" font-size="12.5" font-family="'Geist Variable',system-ui,sans-serif" fill="#E4E4E7"><tspan x="860.5" dy="0">See parent, subdomains and paths</tspan></text><rect x="436.5" y="493" width="140" height="48" rx="9" fill="#151517" stroke="#3F3F46" stroke-width="1.3"/><text x="506.5" y="518.0" text-anchor="middle" font-size="12.5" font-family="'Geist Variable',system-ui,sans-serif" fill="#E4E4E7"><tspan x="506.5" dy="0">Not scanned yet</tspan></text><rect x="409" y="607" width="195" height="48" rx="9" fill="#151517" stroke="#3F3F46" stroke-width="1.3"/><text x="506.5" y="632.0" text-anchor="middle" font-size="12.5" font-family="'Geist Variable',system-ui,sans-serif" fill="#E4E4E7"><tspan x="506.5" dy="0">Run discovery or a scan</tspan></text><path d="M 493.0 72.0 L 493.0 88.0 L 506.5 88.0 L 506.5 138.0" fill="none" stroke="#71717A" stroke-width="1.5" marker-end="url(#flow-arrow-37)"/><path d="M 502.0 186.0 L 502.0 207.0 L 435.5 207.0 L 435.5 252.0" fill="none" stroke="#71717A" stroke-width="1.5" marker-end="url(#flow-arrow-37)"/><path d="M 440.0 313.0 L 440.0 339.0 L 90.5 339.0 L 90.5 379.0" fill="none" stroke="#71717A" stroke-width="1.5" marker-end="url(#flow-arrow-37)"/><g><rect x="201.75" y="325" width="127" height="17" rx="8" fill="#0A0A0A" opacity="0.92" stroke="#71717A" stroke-opacity="0.35"/><text x="265.25" y="338.5" text-anchor="middle" font-size="11" font-family="'Geist Variable',system-ui,sans-serif" fill="#D4D4D8">Server heartbeat</text></g><path d="M 449.0 313.0 L 449.0 344.0 L 253.5 344.0 L 253.5 379.0" fill="none" stroke="#71717A" stroke-width="1.5" marker-end="url(#flow-arrow-37)"/><g><rect x="280.75" y="330" width="141" height="17" rx="8" fill="#0A0A0A" opacity="0.92" stroke="#71717A" stroke-opacity="0.35"/><text x="351.25" y="343.5" text-anchor="middle" font-size="11" font-family="'Geist Variable',system-ui,sans-serif" fill="#D4D4D8">Risk score changed</text></g><path d="M 422.0 313.0 L 422.0 329.0 L 437.5 329.0 L 437.5 379.0" fill="none" stroke="#71717A" stroke-width="1.5" marker-end="url(#flow-arrow-37)"/><g><rect x="383.75" y="315" width="92" height="17" rx="8" fill="#0A0A0A" opacity="0.92" stroke="#71717A" stroke-opacity="0.35"/><text x="429.75" y="328.5" text-anchor="middle" font-size="11" font-family="'Geist Variable',system-ui,sans-serif" fill="#D4D4D8">New finding</text></g><path d="M 431.0 313.0 L 431.0 334.0 L 628.5 334.0 L 628.5 379.0" fill="none" stroke="#71717A" stroke-width="1.5" marker-end="url(#flow-arrow-37)"/><g><rect x="466.25" y="320" width="127" height="17" rx="8" fill="#0A0A0A" opacity="0.92" stroke="#71717A" stroke-opacity="0.35"/><text x="529.75" y="333.5" text-anchor="middle" font-size="11" font-family="'Geist Variable',system-ui,sans-serif" fill="#D4D4D8">Asset discovered</text></g><path d="M 633.0 427.0 L 633.0 453.0 L 506.5 453.0 L 506.5 493.0" fill="none" stroke="#71717A" stroke-width="1.5" marker-end="url(#flow-arrow-37)"/><path d="M 520.0 541.0 L 520.0 572.0 L 506.5 572.0 L 506.5 607.0" fill="none" stroke="#71717A" stroke-width="1.5" marker-end="url(#flow-arrow-37)"/><path d="M 493.0 186.0 L 493.0 202.0 L 581.5 202.0 L 581.5 252.0" fill="none" stroke="#71717A" stroke-width="1.5" marker-end="url(#flow-arrow-37)"/><path d="M 577.0 300.0 L 577.0 321.0 L 860.5 321.0 L 860.5 379.0" fill="none" stroke="#71717A" stroke-width="1.5" marker-end="url(#flow-arrow-37)"/></g>
</svg>
